
<svg 
 xmlns="http://www.w3.org/2000/svg"
 xmlns:xlink="http://www.w3.org/1999/xlink"
 width="24px" height="22px">
<path fill-rule="evenodd"  fill="rgb(255, 255, 255)"
 d="M22.000,12.999 L2.000,12.999 C0.895,12.999 -0.000,12.104 -0.000,10.999 C-0.000,9.894 0.895,8.999 2.000,8.999 L22.000,8.999 C23.105,8.999 24.000,9.894 24.000,10.999 C24.000,12.104 23.105,12.999 22.000,12.999 ZM22.000,4.000 L2.000,4.000 C0.895,4.000 -0.000,3.104 -0.000,1.999 C-0.000,0.895 0.895,-0.001 2.000,-0.001 L22.000,-0.001 C23.105,-0.001 24.000,0.895 24.000,1.999 C24.000,3.104 23.105,4.000 22.000,4.000 ZM2.000,17.999 L22.000,17.999 C23.105,17.999 24.000,18.895 24.000,19.999 C24.000,21.104 23.105,21.999 22.000,21.999 L2.000,21.999 C0.895,21.999 -0.000,21.104 -0.000,19.999 C-0.000,18.895 0.895,17.999 2.000,17.999 Z"/>
</svg>